<svg xmlns="http://www.w3.org/2000/svg" viewBox="0 0 727.87 496.27"><defs><style>.cls-1{fill:#16668e;}.cls-2{fill:#c02119;}.cls-3{fill:#ef850b;}.cls-4{fill:#f2b716;}</style></defs><g id="Camada_2" data-name="Camada 2"><g id="Camada_2-2" data-name="Camada 2"><polygon class="cls-1" points="305.31 427.78 138.14 316.34 347.1 225.79 305.31 427.78"/><polygon class="cls-2" points="139.11 316.46 305.31 427.78 138.14 496.27 139.11 316.46"/><polygon class="cls-3" points="297.76 125.95 347.1 225.79 101.88 264.85 297.76 125.95"/><polygon class="cls-4" points="177.03 0 297.76 125.95 101.88 264.85 177.03 0"/><polygon class="cls-1" points="0 6.38 177.03 0 101.88 264.85 0 6.38"/><polygon class="cls-1" points="422.56 427.78 589.72 316.34 380.77 225.79 422.56 427.78"/><polygon class="cls-2" points="588.76 316.46 422.56 427.78 589.72 496.27 588.76 316.46"/><polygon class="cls-3" points="430.1 125.95 380.77 225.79 625.98 264.85 430.1 125.95"/><polygon class="cls-4" points="550.83 0 430.1 125.95 625.98 264.85 550.83 0"/><polygon class="cls-1" points="727.87 6.38 550.83 0 625.98 264.85 727.87 6.38"/><polygon class="cls-4" points="362.04 330.95 328.66 212.07 362.34 140.61 395.73 211.78 362.04 330.95"/></g></g></svg>